<svg xmlns="http://www.w3.org/2000/svg">
  <symbol id="calculator" viewBox="0 0 98 98">
    <path d="M75.0684 71.7098C74.6102 71.5572 74.141 71.397 73.6736 71.2301V64.3829C74.9346 64.6339 75.6872 65.2374 75.7502 65.2892C76.3489 65.8005 77.2487 65.7342 77.7659 65.1388C78.2857 64.5402 78.222 63.6336 77.6235 63.1139C77.537 63.0389 76.0692 61.7951 73.6738 61.4772V60.9112C73.6738 60.1184 73.0311 59.4758 72.2384 59.4758C71.4458 59.4758 70.8031 60.1186 70.8031 60.9112V61.5811C70.5606 61.6297 70.3137 61.6877 70.0614 61.7593C67.8547 62.3854 66.2268 64.1867 65.8133 66.4604C65.4483 68.4673 66.1433 70.3948 67.6271 71.4908C68.4287 72.083 69.429 72.6254 70.8031 73.1997V81.8568C69.5295 81.7835 68.6856 81.5155 67.2699 80.6435C66.5948 80.2275 65.7107 80.4379 65.295 81.1128C64.8793 81.7877 65.0892 82.672 65.7643 83.0877C67.7276 84.2972 69.0601 84.6444 70.8033 84.7281V85.4671C70.8033 86.2599 71.446 86.9024 72.2386 86.9024C73.0313 86.9024 73.674 86.2597 73.674 85.4671V84.6186C77.0431 84.0038 79.1704 81.3342 79.5884 78.703C80.0911 75.5364 78.3171 72.7912 75.0684 71.7098ZM69.3323 69.1815C68.6197 68.6551 68.5062 67.6962 68.6375 66.9742C68.805 66.0527 69.4627 64.9345 70.8027 64.5349V70.0499C70.2453 69.7744 69.7433 69.485 69.3323 69.1815ZM76.7526 78.2526C76.5303 79.6516 75.4904 81.1409 73.6734 81.6749V74.269C73.8334 74.3234 73.9944 74.378 74.1615 74.4337C76.0633 75.0668 77.032 76.4943 76.7526 78.2526Z" fill="#57BAE2" fill-opacity="0.5"/>
    <path d="M70.9631 10.725C70.9631 9.29519 69.7999 8.1322 68.3703 8.1322H11.1749C9.74525 8.1322 8.58208 9.29538 8.58208 10.725V14.5937C8.58208 15.3865 9.22482 16.0291 10.0174 16.0291C10.81 16.0291 11.4528 15.3863 11.4528 14.5937V11.0029H68.092V24.8894H11.453V21.305C11.453 20.5122 10.8102 19.8696 10.0176 19.8696C9.22501 19.8696 8.58227 20.5124 8.58227 21.305V25.1676C8.58227 26.5972 9.74544 27.7603 11.1751 27.7603H68.3703C69.8001 27.7603 70.9631 26.5972 70.9631 25.1676V10.725Z" fill="#57BAE2" fill-opacity="0.5"/>
    <path d="M20.9067 37.0036C20.9067 35.7015 19.8473 34.6422 18.5453 34.6422H11.4501C10.148 34.6422 9.08873 35.7016 9.08873 37.0036V44.0986C9.08873 45.4008 10.1482 46.4602 11.4501 46.4602H18.5453C19.8475 46.4602 20.9067 45.4008 20.9067 44.0986V37.0036ZM18.0358 43.5893H11.9594V37.5129H18.0358V43.5893Z" fill="#57BAE2" fill-opacity="0.5"/>
    <path d="M37.4234 37.0036C37.4234 35.7015 36.3639 34.6422 35.0618 34.6422H27.9667C26.6646 34.6422 25.6054 35.7016 25.6054 37.0036V44.0986C25.6054 45.4008 26.6648 46.4602 27.9667 46.4602H35.0618C36.3639 46.4602 37.4234 45.4008 37.4234 44.0986V37.0036ZM34.5525 43.5893H28.4761V37.5129H34.5525V43.5893Z" fill="#57BAE2" fill-opacity="0.5"/>
    <path d="M44.4834 34.6422C43.1812 34.6422 42.1218 35.7016 42.1218 37.0036V44.0986C42.1218 45.4008 43.1812 46.4602 44.4834 46.4602H51.5784C52.8806 46.4602 53.9398 45.4008 53.9398 44.0986V37.0036C53.9398 35.7015 52.8804 34.6422 51.5784 34.6422H44.4834ZM51.0691 43.5893H44.9927V37.5129H51.0691V43.5893Z" fill="#57BAE2" fill-opacity="0.5"/>
    <path d="M68.0953 34.6422H61C59.6979 34.6422 58.6386 35.7016 58.6386 37.0036V44.0986C58.6386 45.4008 59.6981 46.4602 61 46.4602H68.0953C69.3974 46.4602 70.4567 45.4008 70.4567 44.0986V37.0036C70.4567 35.7015 69.3972 34.6422 68.0953 34.6422ZM67.5857 43.5893H61.5093V37.5129H67.5857V43.5893Z" fill="#57BAE2" fill-opacity="0.5"/>
    <path d="M20.9067 54.4767C20.9067 53.1746 19.8473 52.1154 18.5453 52.1154H11.4501C10.148 52.1154 9.08873 53.1748 9.08873 54.4767V61.5718C9.08873 62.8739 10.1482 63.9334 11.4501 63.9334H18.5453C19.8475 63.9334 20.9067 62.8739 20.9067 61.5718V54.4767ZM18.0358 61.0625H11.9594V54.9861H18.0358V61.0625Z" fill="#57BAE2" fill-opacity="0.5"/>
    <path d="M37.4234 54.4767C37.4234 53.1746 36.3639 52.1154 35.0618 52.1154H27.9667C26.6646 52.1154 25.6054 53.1748 25.6054 54.4767V61.5718C25.6054 62.8739 26.6648 63.9334 27.9667 63.9334H35.0618C36.3639 63.9334 37.4234 62.8739 37.4234 61.5718V54.4767ZM34.5525 61.0625H28.4761V54.9861H34.5525V61.0625Z" fill="#57BAE2" fill-opacity="0.5"/>
    <path d="M35.0618 69.5881H27.9667C26.6646 69.5881 25.6054 70.6476 25.6054 71.9495V79.0446C25.6054 80.3467 26.6648 81.4061 27.9667 81.4061H35.0618C36.3639 81.4061 37.4234 80.3467 37.4234 79.0446V71.9495C37.4234 70.6476 36.3639 69.5881 35.0618 69.5881ZM34.5525 78.5354H28.4761V72.459H34.5525V78.5354Z" fill="#57BAE2" fill-opacity="0.5"/>
    <path d="M72.3753 48.3784C65.0655 48.3784 58.4846 51.5567 53.94 56.6031V54.4766C53.94 53.1745 52.8806 52.115 51.5786 52.115H44.4836C43.1814 52.115 42.122 53.1745 42.122 54.4766V61.5717C42.122 62.8738 43.1814 63.933 44.4836 63.933H49.357C48.634 65.7246 48.1144 67.6192 47.8269 69.588H44.4836C43.1814 69.588 42.122 70.6474 42.122 71.9495V79.0446C42.122 80.3467 43.1814 81.4059 44.4836 81.4059H48.965C52.3636 91.0605 61.5735 97.9999 72.3753 97.9999C86.0561 97.9999 97.1862 86.8698 97.1862 73.1891C97.1862 59.5083 86.0561 48.3784 72.3753 48.3784ZM44.9927 61.0623V54.9859H51.0691V60.4898C50.956 60.6789 50.8454 60.87 50.7372 61.0623H44.9927ZM44.9927 78.5354V72.459H47.5761C47.5691 72.7016 47.5646 72.9448 47.5646 73.1893C47.5646 75.0243 47.7668 76.813 48.1465 78.5354H44.9927ZM72.3753 95.129C60.2777 95.129 50.4354 85.2867 50.4354 73.1891C50.4354 61.0914 60.2777 51.2491 72.3753 51.2491C84.4729 51.2491 94.3153 61.0914 94.3153 73.1891C94.3153 85.2867 84.4731 95.129 72.3753 95.129Z" fill="#57BAE2" fill-opacity="0.5"/>
    <path d="M72.3753 54.1423C61.8728 54.1423 53.3284 62.6867 53.3284 73.1892C53.3284 83.6916 61.8728 92.236 72.3753 92.236C82.8778 92.236 91.4221 83.6916 91.4221 73.1892C91.4221 62.6867 82.8778 54.1423 72.3753 54.1423ZM72.3753 89.3653C63.4558 89.3653 56.1992 82.1087 56.1992 73.1892C56.1992 64.2696 63.4558 57.013 72.3753 57.013C81.2948 57.013 88.5514 64.2696 88.5514 73.1892C88.5514 82.1087 81.2948 89.3653 72.3753 89.3653Z" fill="#57BAE2" fill-opacity="0.5"/>
    <path d="M18.5453 69.5881H11.4501C10.148 69.5881 9.08873 70.6476 9.08873 71.9495V79.0446C9.08873 80.3467 10.1482 81.4061 11.4501 81.4061H18.5453C19.8475 81.4061 20.9067 80.3467 20.9067 79.0446V71.9495C20.9067 70.6476 19.8473 69.5881 18.5453 69.5881ZM18.0358 78.5354H11.9594V72.459H18.0358V78.5354Z" fill="#57BAE2" fill-opacity="0.5"/>
    <path d="M51.5717 90.9978H9.18712C6.15314 90.9978 3.68476 88.5294 3.68476 85.4954V8.37307C3.68476 5.33909 6.15314 2.87071 9.18712 2.87071H70.3585C73.3924 2.87071 75.8608 5.33909 75.8608 8.37307V43.602C75.8608 44.3948 76.5036 45.0373 77.2962 45.0373C78.0888 45.0373 78.7315 44.3946 78.7315 43.602V8.37307C78.7315 3.75616 74.9754 0 70.3585 0H9.18712C4.57002 0 0.813858 3.75616 0.813858 8.37307V85.4954C0.813858 90.1125 4.57002 93.8687 9.18693 93.8687H51.5717C52.3645 93.8687 53.0071 93.2259 53.0071 92.4333C53.0071 91.6407 52.3645 90.9978 51.5717 90.9978Z" fill="#57BAE2" fill-opacity="0.5"/>
  </symbol>
  <symbol id="document" viewBox="0 0 100 100">
    <path d="M33.3335 71.6667H30.0002C29.0797 71.6667 28.3335 72.4129 28.3335 73.3334C28.3335 74.2538 29.0797 75 30.0002 75H33.3335C34.2539 75 35.0002 74.2538 35.0002 73.3334C35.0002 72.4129 34.2539 71.6667 33.3335 71.6667Z" fill="#96B7D5"/>
    <path d="M80.0002 71.6667H40.0002C39.0797 71.6667 38.3335 72.4129 38.3335 73.3334C38.3335 74.2538 39.0797 75 40.0002 75H80.0002C80.9206 75 81.6668 74.2538 81.6668 73.3334C81.6668 72.4129 80.9206 71.6667 80.0002 71.6667Z" fill="#96B7D5"/>
    <path d="M33.3335 61.6667H30.0002C29.0797 61.6667 28.3335 62.4129 28.3335 63.3334C28.3335 64.2538 29.0797 65 30.0002 65H33.3335C34.2539 65 35.0002 64.2538 35.0002 63.3334C35.0002 62.4129 34.2539 61.6667 33.3335 61.6667Z" fill="#96B7D5"/>
    <path d="M80.0002 61.6667H40.0002C39.0797 61.6667 38.3335 62.4129 38.3335 63.3334C38.3335 64.2538 39.0797 65 40.0002 65H80.0002C80.9206 65 81.6668 64.2538 81.6668 63.3334C81.6668 62.4129 80.9206 61.6667 80.0002 61.6667Z" fill="#96B7D5"/>
    <path d="M33.3335 51.6667H30.0002C29.0797 51.6667 28.3335 52.4129 28.3335 53.3334C28.3335 54.2538 29.0797 55 30.0002 55H33.3335C34.2539 55 35.0002 54.2538 35.0002 53.3334C35.0002 52.4129 34.2539 51.6667 33.3335 51.6667Z" fill="#96B7D5"/>
    <path d="M80.0002 51.6667H40.0002C39.0797 51.6667 38.3335 52.4129 38.3335 53.3334C38.3335 54.2538 39.0797 55 40.0002 55H80.0002C80.9206 55 81.6668 54.2538 81.6668 53.3334C81.6668 52.4129 80.9206 51.6667 80.0002 51.6667Z" fill="#96B7D5"/>
    <path d="M33.3335 41.6667H30.0002C29.0797 41.6667 28.3335 42.4129 28.3335 43.3334C28.3335 44.2538 29.0797 45 30.0002 45H33.3335C34.2539 45 35.0002 44.2538 35.0002 43.3334C35.0002 42.4129 34.2539 41.6667 33.3335 41.6667Z" fill="#96B7D5"/>
    <path d="M80.0002 41.6667H40.0002C39.0797 41.6667 38.3335 42.4129 38.3335 43.3334C38.3335 44.2538 39.0797 45 40.0002 45H80.0002C80.9206 45 81.6668 44.2538 81.6668 43.3334C81.6668 42.4129 80.9206 41.6667 80.0002 41.6667Z" fill="#96B7D5"/>
    <path d="M33.3335 31.6667H30.0002C29.0797 31.6667 28.3335 32.4129 28.3335 33.3334C28.3335 34.2538 29.0797 35 30.0002 35H33.3335C34.2539 35 35.0002 34.2538 35.0002 33.3334C35.0002 32.4129 34.2539 31.6667 33.3335 31.6667Z" fill="#96B7D5"/>
    <path d="M80.0002 31.6667H40.0002C39.0797 31.6667 38.3335 32.4129 38.3335 33.3334C38.3335 34.2538 39.0797 35 40.0002 35H80.0002C80.9206 35 81.6668 34.2538 81.6668 33.3334C81.6668 32.4129 80.9206 31.6667 80.0002 31.6667Z" fill="#96B7D5"/>
    <path d="M91.6452 24.895C91.6368 24.749 91.6083 24.6048 91.5602 24.4667C91.5418 24.4133 91.5285 24.3617 91.5052 24.31C91.4241 24.1287 91.3112 23.9633 91.1718 23.8217L67.8385 0.488333C67.6968 0.348958 67.5314 0.236042 67.3502 0.155C67.2985 0.131667 67.2468 0.118333 67.1952 0.1C67.0558 0.0520833 66.9106 0.0229167 66.7635 0.0133333C66.7352 0.0183333 66.7035 0 66.6668 0H20.0002C19.0797 0 18.3335 0.74625 18.3335 1.66667V6.66667H10.0002C9.07975 6.66667 8.3335 7.41292 8.3335 8.33333V98.3333C8.3335 99.2537 9.07975 100 10.0002 100H80.0002C80.9206 100 81.6668 99.2537 81.6668 98.3333V90H90.0002C90.9206 90 91.6668 89.2537 91.6668 88.3333V25C91.6668 24.9633 91.6485 24.9317 91.6452 24.895ZM68.3335 5.69L85.9768 23.3333H68.3335V5.69ZM78.3335 96.6667H11.6668V10H18.3335V88.3333C18.3335 89.2537 19.0797 90 20.0002 90H78.3335V96.6667ZM88.3335 86.6667H21.6668V3.33333H65.0002V25C65.0002 25.9204 65.7464 26.6667 66.6668 26.6667H88.3335V86.6667Z" fill="#96B7D5"/>
    <path d="M40.0002 15H30.0002C29.0797 15 28.3335 15.7462 28.3335 16.6667V26.6667C28.3335 27.5871 29.0797 28.3333 30.0002 28.3333H40.0002C40.9206 28.3333 41.6668 27.5871 41.6668 26.6667V16.6667C41.6668 15.7462 40.9206 15 40.0002 15ZM38.3335 25H31.6668V18.3333H38.3335V25Z" fill="#96B7D5"/>
  </symbol>
  <symbol id="earth" viewBox="0 0 100 100">
    <path d="M50 0C22.4305 0 0 22.4305 0 50C0 77.5695 22.4305 100 50 100C77.5695 100 100 77.5695 100 50C100 22.4305 77.5695 0 50 0ZM91.7697 31.2313C88.9918 34.5367 85.8256 37.4402 84.5256 37.8398C82.8146 36.2406 78.6783 33.2297 76.0314 34.9041C74.9775 35.5715 73.9645 37.0465 75.1221 40.2834C76.6154 44.4664 80.302 48.2566 82.4727 50.226C80.4117 52.7324 77.0832 57.2633 77.0832 60.4168C77.0832 60.9539 76.9814 61.1045 76.0863 61.8797C74.825 62.9764 72.9166 64.6324 72.9166 68.7502C72.9166 71.4012 68.3898 73.6594 65.3137 74.691C64.1459 73.167 62.5 70.6096 62.5 68.75C62.5 67.5619 62.7156 67.2852 63.143 66.7297C63.9018 65.7471 64.5834 64.683 64.5834 62.5C64.5834 60.4125 63.9568 58.9742 63.4033 57.7047C62.8988 56.5471 62.5 55.6314 62.5 54.1666C62.5 48.7283 52.0568 47.9166 45.8334 47.9166C44.1529 47.9166 41.6668 47.2555 41.6668 45.8332C41.6668 45.1842 41.6078 44.4762 41.5406 43.7275C41.3229 41.2516 41.1154 38.9139 43.1398 36.8896C46.3504 33.6791 51.9207 33.3334 54.1668 33.3334C56.4088 33.3334 57.1473 33.6834 58.0854 34.1248C59.6357 34.8572 61.0984 35.4168 64.5836 35.4168L66.9885 35.4453C71.442 35.5084 75.2873 35.5857 77.5537 33.3559C78.6238 32.3041 79.167 30.8941 79.167 29.1668C79.167 21.6453 66.0547 20.8334 60.417 20.8334C56.4984 20.8334 53.7519 22.1457 51.3289 23.3033C49.8314 24.0195 48.4949 24.6584 47.0463 24.8984C47.0482 24.8395 47.0545 24.7744 47.0666 24.7031C47.3637 22.8416 50.092 20.0115 53.0256 18.5244C55.0988 17.4727 57.5197 15.9549 57.8352 13.5277C57.9613 12.5594 57.707 11.6967 57.3205 10.9744C60.0816 9.94141 65.309 9.10371 69.9031 8.77773C79.5687 13.4639 87.3432 21.4203 91.7697 31.2313ZM16.6666 72.9166V81.3604C8.98633 73.2016 4.2334 62.2637 4.17754 50.2139C7.75137 50.9279 9.19082 53.4842 10.677 56.1869C11.4217 57.542 12.1256 58.8217 13.1102 59.8063C14.8883 61.5844 17.2768 61.8529 19.0203 62.0482C19.6734 62.1215 20.6621 62.2334 20.833 62.5C20.833 63.5803 20.2877 64.4186 19.3234 65.8061C18.1396 67.509 16.6666 69.6309 16.6666 72.9166ZM50 95.8334C38.9289 95.8334 28.7637 91.8861 20.8334 85.3275V72.9168C20.8334 70.9352 21.7205 69.6596 22.7459 68.1824C23.8018 66.6627 25 64.9395 25 62.5C25 58.5266 21.4131 58.1238 19.4844 57.9082C18.1049 57.7535 16.8029 57.607 16.0562 56.8604C15.4906 56.2947 14.925 55.2674 14.327 54.1809C12.6971 51.2148 10.2969 46.9217 4.36797 46.025C6.39297 22.6102 26.0691 4.1666 50 4.1666C53.9357 4.1666 57.7361 4.71816 61.3836 5.65566C57.851 6.31797 54.2941 7.34336 52.6937 8.94375C52.2889 9.34863 52.0672 9.9041 52.0834 10.4777C52.1018 11.0494 52.3539 11.5906 52.7812 11.973C53.5299 12.6383 53.6744 12.974 53.7029 12.974C53.6561 13.0736 53.2736 13.7268 51.1414 14.8092C47.6217 16.5934 43.5568 20.2453 42.9525 24.0459C42.6758 25.7711 43.1764 27.3723 44.3604 28.5564C44.751 28.9471 45.2799 29.1668 45.8334 29.1668C48.7266 29.1668 50.9623 28.0967 53.125 27.0631C55.3447 26.0029 57.4422 25 60.4166 25C68.5934 25 75 26.8311 75 29.1666C75 30.023 74.7334 30.2855 74.6318 30.3832C73.6084 31.3902 70.1234 31.3252 67.0594 31.2783C66.2477 31.2641 65.4176 31.2498 64.5834 31.2498C61.7555 31.2498 60.8785 30.8367 59.8633 30.3566C58.6813 29.7992 57.3426 29.1664 54.1666 29.1664C50.7324 29.1664 44.3502 29.7869 40.1936 33.9434C36.7939 37.341 37.1539 41.4059 37.39 44.0936C37.4449 44.7121 37.5 45.298 37.5 45.833C37.5 49.9365 41.6932 52.083 45.8334 52.083C52.2014 52.083 57.7068 53.2711 58.3334 54.1664C58.3334 56.498 59.0271 58.091 59.5846 59.3686C60.0484 60.4367 60.4166 61.2789 60.4166 62.4996C60.4166 63.4436 60.2619 63.6451 59.8449 64.1822C59.0494 65.2158 58.3332 66.3408 58.3332 68.7496C58.3332 73.134 62.5549 77.9436 63.035 78.4787C63.4357 78.9223 64.0014 79.1664 64.5832 79.1664C64.7561 79.1664 64.9291 79.1461 65.1 79.1014C66.3268 78.7859 77.0832 75.8258 77.0832 68.7498C77.0832 66.5322 77.7729 65.934 78.8186 65.0266C79.8439 64.1354 81.2498 62.9168 81.2498 60.4164C81.2498 58.7461 84.2141 54.435 86.9607 51.3975C87.3494 50.9682 87.5426 50.3945 87.4918 49.8166C87.441 49.2389 87.152 48.7078 86.6943 48.3537C85.0748 47.0984 80.6029 43.0111 79.1057 39.0459C79.9541 39.4895 81.016 40.2117 81.8604 41.0561C82.5541 41.7539 83.484 42.0875 84.5418 42.0449C87.2963 41.8875 90.901 38.4945 93.4885 35.6197C94.9902 40.1482 95.8332 44.9738 95.8332 49.9998C95.8334 75.2727 75.2727 95.8334 50 95.8334Z" fill="#86AFD0"/>
  </symbol>
  <symbol id="headphones" viewBox="0 0 92 100">
    <path d="M82.1399 41.3366H81.8923V35.2723C81.8923 15.792 66.1006 0 46.6201 0C27.1395 0 11.3478 15.792 11.3478 35.2723V41.3366H9.86273C4.41713 41.3366 0.209272 46.1632 0.209272 51.7327V67.203C0.0721137 72.601 4.33706 77.0881 9.73505 77.2253C9.77769 77.2265 9.82009 77.2272 9.86273 77.2276H19.0211C20.3183 77.1668 21.3206 76.0655 21.2594 74.7683C21.2573 74.7216 21.2538 74.6749 21.2488 74.6285V44.3067C21.2488 42.8217 20.3825 41.3364 19.0211 41.3364H16.2983V35.272C16.2983 18.5259 29.8739 4.95026 46.6201 4.95026C63.3662 4.95026 76.9418 18.5259 76.9418 35.272V41.3364H74.219C72.8576 41.3364 71.9913 42.8214 71.9913 44.3067V74.6285C71.8532 75.9198 72.788 77.0786 74.0793 77.2167C74.1257 77.2217 74.1724 77.2253 74.219 77.2274H77.0655L76.8179 77.5986C73.1042 82.5342 67.2768 85.4249 61.1001 85.3956C59.748 78.7653 53.2766 74.4864 46.6463 75.8388C40.9764 76.995 36.8884 81.9607 36.8427 87.7472C36.9105 94.534 42.4319 100 49.219 99.9995C52.5788 99.945 55.7813 98.5664 58.1298 96.1629C59.7143 94.5402 60.7526 92.4634 61.1001 90.2222C68.835 90.2516 76.1295 86.6272 80.7782 80.4451L83.1298 76.9796C88.4515 76.6084 91.7931 73.2669 91.7931 68.44V52.9698C91.7933 47.6485 87.833 41.3366 82.1399 41.3366ZM16.2983 72.2771H9.86273C7.19773 72.2122 5.08989 69.9995 5.1548 67.3345C5.15598 67.2906 5.15764 67.2468 5.15977 67.2027V51.7325C5.15977 48.886 7.13993 46.2869 9.86273 46.2869H16.2983V72.2771ZM54.5409 92.6979C53.1693 94.1851 51.2422 95.0367 49.2192 95.0495C45.1926 94.9855 41.9249 91.7724 41.7934 87.7474C41.7918 83.7146 45.0597 80.4441 49.0925 80.4425C53.1253 80.4408 56.3957 83.7087 56.3974 87.7415C56.3974 87.7434 56.3974 87.7455 56.3974 87.7474C56.5005 89.5849 55.8267 91.3813 54.5409 92.6979ZM86.8428 68.4405C86.8428 71.782 83.6249 72.2771 82.1399 72.2771H76.9418V46.2871H82.1399C84.8627 46.2871 86.8428 50.1238 86.8428 52.9702V68.4405Z" fill="#96B7D5"/>
  </symbol>
  <symbol id="information" viewBox="0 0 13 13">
    <path d="M6.5 0C2.90715 0 0 2.9074 0 6.5C0 10.0928 2.9074 13 6.5 13C10.0928 13 13 10.0926 13 6.5C13 2.90715 10.0926 0 6.5 0ZM6.5 11.9844C3.46854 11.9844 1.01562 9.53126 1.01562 6.5C1.01562 3.46854 3.46874 1.01562 6.5 1.01562C9.53146 1.01562 11.9844 3.46874 11.9844 6.5C11.9844 9.53146 9.53123 11.9844 6.5 11.9844Z" fill="#5A5A5A"/>
    <path d="M6.5 5.44202C6.21954 5.44202 5.99219 5.66936 5.99219 5.94983V9.21996C5.99219 9.50043 6.21954 9.72778 6.5 9.72778C6.78046 9.72778 7.00781 9.5004 7.00781 9.21994V5.94983C7.00781 5.66936 6.78046 5.44202 6.5 5.44202Z" fill="#5A5A5A"/>
    <path d="M6.5 4.82019C6.87862 4.82019 7.18555 4.51326 7.18555 4.13464C7.18555 3.75603 6.87862 3.4491 6.5 3.4491C6.12138 3.4491 5.81445 3.75603 5.81445 4.13464C5.81445 4.51326 6.12138 4.82019 6.5 4.82019Z" fill="#5A5A5A"/>
  </symbol>
  <symbol id="logo" viewBox="0 0 100 44">
    <path fill-rule="evenodd" clip-rule="evenodd" d="M97.4453 39.2865C96.8721 39.3512 96.2927 39.2435 95.7803 38.9771C95.5332 38.7558 95.401 38.4325 95.4216 38.1003V23.5038C95.3858 23.3251 95.3858 23.141 95.4216 22.9622C95.4809 22.8182 95.5784 22.6933 95.7034 22.6012C96.2164 22.3362 96.7953 22.2286 97.3684 22.2917C97.9417 22.2255 98.5215 22.3333 99.0334 22.6012C99.1594 22.6923 99.2571 22.8175 99.3152 22.9622C99.3504 23.141 99.3504 23.325 99.3152 23.5038V37.9971C99.3511 38.1758 99.3511 38.36 99.3152 38.5387C99.2558 38.6683 99.1683 38.7829 99.059 38.8739C98.5735 39.169 98.0119 39.3126 97.4453 39.2865Z" fill="#D40E14"/>
    <path fill-rule="evenodd" clip-rule="evenodd" d="M84.2963 39.303C83.2865 39.3231 82.2802 39.176 81.3171 38.8674C80.5479 38.6131 79.8418 38.1936 79.2468 37.6374C78.703 37.1197 78.2877 36.4787 78.0349 35.7668C77.7792 35.0258 77.6511 34.2457 77.6562 33.4606V23.467C77.6234 23.2892 77.6234 23.1068 77.6562 22.9289C77.7109 22.7836 77.8077 22.6585 77.9339 22.5702C78.9844 22.1736 80.1404 22.1736 81.1908 22.5702C81.4375 22.7877 81.5686 23.1107 81.5443 23.4414V33.3837C81.5423 33.7229 81.5935 34.0602 81.6958 34.3831C81.7873 34.6638 81.943 34.9184 82.1502 35.1262C82.3803 35.3478 82.6564 35.5141 82.9581 35.6131C83.3667 35.7412 83.793 35.8017 84.2205 35.7924C84.8077 35.8156 85.3907 35.6831 85.9121 35.4081C86.2735 35.218 86.5525 34.8984 86.6948 34.5112C86.8216 34.1489 86.8898 33.7682 86.8967 33.3837V23.467C86.8685 23.2974 86.8685 23.1242 86.8967 22.9546C86.9581 22.8057 87.0641 22.6801 87.1997 22.5958C88.2502 22.1992 89.4061 22.1992 90.4566 22.5958C90.694 22.8183 90.8154 23.1406 90.7848 23.467V33.4606C90.7909 34.2458 90.6628 35.0261 90.4061 35.7668C90.1533 36.4787 89.7381 37.1197 89.1942 37.6374C88.5988 38.1929 87.8928 38.6124 87.124 38.8674C86.2092 39.1599 85.2553 39.3068 84.2963 39.303Z" fill="#D40E14"/>
    <path fill-rule="evenodd" clip-rule="evenodd" d="M67.4757 38.6327C66.9039 38.694 66.3264 38.5894 65.8146 38.332C65.5614 38.1219 65.428 37.8043 65.4568 37.4803V25.5808H61.6747C61.3849 25.605 61.0938 25.5532 60.8313 25.4305C60.6985 25.3496 60.5989 25.2254 60.5502 25.0797C60.525 24.9136 60.525 24.7448 60.5502 24.5787C60.5183 24.237 60.5183 23.8932 60.5502 23.5516C60.5969 23.2627 60.6918 22.9834 60.8313 22.7249C60.9367 22.5216 61.1208 22.3682 61.3425 22.299C61.5796 22.264 61.8208 22.264 62.058 22.299H73.7112H74.0434C74.1763 22.3798 74.2758 22.504 74.3245 22.6497C74.3479 22.8076 74.3479 22.9679 74.3245 23.1257C74.348 23.4342 74.348 23.7441 74.3245 24.0526C74.2829 24.3745 74.188 24.6876 74.0434 24.9795C73.9381 25.1828 73.754 25.3362 73.5323 25.4054C73.295 25.4383 73.0541 25.4383 72.8168 25.4054H69.4435V37.3801C69.4736 37.5458 69.4736 37.7154 69.4435 37.8811C69.3904 38.0176 69.3024 38.1383 69.1879 38.2318C68.6724 38.5338 68.0748 38.6737 67.4757 38.6327Z" fill="#D40E14"/>
    <path fill-rule="evenodd" clip-rule="evenodd" d="M54.6053 5.74026C54.6053 8.54872 52.2698 10.8254 49.3888 10.8254C46.5079 10.8254 44.1724 8.54872 44.1724 5.74026C44.1724 2.9318 46.5079 0.65509 49.3888 0.65509C52.2698 0.65509 54.6053 2.9318 54.6053 5.74026ZM41.5641 23.8689C43.0508 20.7415 43.6507 19.877 45.6069 20.3347C48.2151 20.9703 48.3977 22.3942 47.3283 25.6233C39.4254 49.549 12.5346 52.0916 7.16164 20.4872L3.8492 20.6906C2.7547 20.9022 1.64339 20.4116 1.08448 19.4702C0.761756 18.7683 0.618555 18.0005 0.667161 17.2327C0.667161 14.6902 1.68437 13.724 3.61446 13.724H17.4902C18.2077 13.6233 18.9357 13.8182 19.4997 14.262C20.0638 14.7057 20.413 15.3583 20.4636 16.0631C20.8809 17.9701 20.7505 19.6228 18.1162 19.8007L13.5779 20.0804C16.7599 37.37 32.7483 42.4552 41.5641 23.9706V23.8689Z" fill="#D40E14"/>
  </symbol>
  <symbol id="email" viewBox="0 0 80 70">
    <path d="M79.6248 22.4956L68.0396 14.3124V2.35939C67.9234 1.17533 67.0113 0.224989 65.8328 0.060791H15.0791C13.9009 0.225165 12.9885 1.17533 12.8724 2.35939V14.2204L0.827502 22.4954C0.350395 22.8417 0.0482211 23.379 0 23.9665V67.6405C0.15663 68.8392 1.09993 69.7827 2.2986 69.9391H78.6134C79.6248 69.9391 79.9926 68.7438 79.9926 67.6405V23.9667C79.9926 23.4149 80.0845 22.8632 79.6248 22.4956ZM68.0396 18.7257L75.947 24.1504L68.0396 30.1268V18.7257ZM16.5502 3.73862H64.3617V32.9773L40.4559 50.9986L16.55 32.9773V3.73862H16.5502ZM12.8724 18.6338V30.219L4.96501 24.1506L12.8724 18.6338ZM3.67782 27.9203L29.4226 47.4127L3.67782 64.7904V27.9203ZM8.09128 66.2615L32.5487 49.8033L39.0768 54.7683C39.4464 55.0539 39.8971 55.215 40.364 55.228C40.7318 55.228 40.9158 55.0441 41.2834 54.7683L48.0873 49.5273L72.8207 66.2615H8.09128ZM76.3148 64.1468L51.1217 47.2287L76.3148 27.9203V64.1468Z" fill="#ABDCF0"/>
    <path d="M25.7447 15.6915H34.0198C35.0354 15.6915 35.8587 14.8682 35.8587 13.8526C35.8587 12.8369 35.0354 12.0137 34.0198 12.0137H25.7447C24.7291 12.0137 23.9058 12.8369 23.9058 13.8526C23.9058 14.8682 24.7291 15.6915 25.7447 15.6915Z" fill="#ABDCF0"/>
    <path d="M25.7447 23.9666H55.1673C56.183 23.9666 57.0062 23.1434 57.0062 22.1277C57.0062 21.1121 56.183 20.2888 55.1673 20.2888H25.7447C24.7291 20.2888 23.9058 21.1121 23.9058 22.1277C23.9058 23.1434 24.7291 23.9666 25.7447 23.9666Z" fill="#ABDCF0"/>
    <path d="M57.0061 30.4028C57.0061 29.3871 56.1828 28.5638 55.1672 28.5638H25.7447C24.7291 28.5638 23.9058 29.3871 23.9058 30.4028C23.9058 31.4184 24.7291 32.2417 25.7447 32.2417H55.1673C56.1828 32.2417 57.0061 31.4184 57.0061 30.4028Z" fill="#ABDCF0"/>
  </symbol>
  <symbol id="nav-account" viewBox="0 0 25 25">
    <path d="M12.5 24C15.55 24 18.4751 22.7884 20.6317 20.6317C22.7884 18.4751 24 15.55 24 12.5C24 9.45001 22.7884 6.52494 20.6317 4.36827C18.4751 2.2116 15.55 1 12.5 1C9.45001 1 6.52494 2.2116 4.36827 4.36827C2.2116 6.52494 1 9.45001 1 12.5C1 15.55 2.2116 18.4751 4.36827 20.6317C6.52494 22.7884 9.45001 24 12.5 24ZM6.51 20.17C9.05 19.26 10.11 18.2 10.58 17.44C11.11 17.63 11.68 17.77 12.36 17.77H12.55C13.27 17.77 13.89 17.63 14.42 17.39C14.85 18.2 15.95 19.26 18.54 20.17C16.8259 21.507 14.7138 22.2321 12.54 22.23C10.24 22.27 8.14 21.51 6.51 20.17ZM14.66 15.14C14.13 15.76 13.41 16.04 12.46 16.04H12.4C11.45 16.04 10.73 15.76 10.2 15.14C8.81 13.55 9.1 10.49 9.1 10.44V10.39C9.24 7.19 11.59 6.89 12.3 6.89H12.46C12.99 6.89 15.62 6.94 15.76 10.34V10.39C15.86 11.3 15.82 13.79 14.66 15.14ZM12.5 2.77C15.0913 2.77529 17.5747 3.8077 19.4061 5.64095C21.2375 7.47419 22.2674 9.95872 22.27 12.55C22.27 14.95 21.37 17.15 19.93 18.87C16.57 17.87 15.95 16.72 15.85 16.43L15.95 16.33C17.82 14.27 17.53 10.73 17.48 10.34C17.29 6.22 14.22 5.17 12.45 5.26C10.63 5.22 7.61 6.22 7.42 10.34C7.37 10.73 7.09 14.22 8.95 16.34C9.05 16.43 9.1 16.53 9.19 16.57C9 16.96 8.19 17.97 5.17 18.87C3.67129 17.1032 2.83969 14.8667 2.82 12.55C2.80138 11.269 3.03831 9.99704 3.51693 8.80862C3.99555 7.62019 4.70627 6.5391 5.60753 5.62852C6.5088 4.71794 7.58254 3.99616 8.76598 3.50534C9.94942 3.01453 11.2188 2.76455 12.5 2.77Z" fill="currentColor" stroke="currentColor" stroke-width="0.2"/>
  </symbol>
  <symbol id="nav-agent" viewBox="0 0 23 24">
    <path d="M13.6 22.73C13.937 22.9223 14.3204 23.0184 14.7084 23.0078C15.0963 22.9973 15.4739 22.8804 15.8 22.67L20.73 19.58C21.1431 19.3232 21.4838 18.9653 21.7201 18.54C21.9563 18.1148 22.0802 17.6364 22.08 17.15V5.85C22.08 4.86 21.58 3.94 20.73 3.42L15.79 0.319997C15.4627 0.119097 15.0878 0.00908122 14.7038 0.00128456C14.3199 -0.0065121 13.9408 0.0881918 13.6056 0.27564C13.2705 0.463089 12.9913 0.736504 12.797 1.06772C12.6027 1.39894 12.5001 1.77597 12.5 2.16V2.87H5.79998C5.4214 2.86868 5.0463 2.94227 4.69629 3.08653C4.34627 3.2308 4.02826 3.44289 3.76056 3.71058C3.49287 3.97828 3.28078 4.29629 3.13651 4.64631C2.99225 4.99632 2.91866 5.37142 2.91998 5.75V7.67C2.9442 7.90643 3.05527 8.12546 3.23168 8.28472C3.40809 8.44398 3.63731 8.53215 3.87498 8.53215C4.11264 8.53215 4.34186 8.44398 4.51828 8.28472C4.69469 8.12546 4.80575 7.90643 4.82998 7.67V5.75C4.82998 5.22 5.25998 4.79 5.78998 4.79H12.5V18.21H5.79998C5.67307 18.2113 5.54716 18.1875 5.42953 18.1398C5.3119 18.0922 5.20489 18.0217 5.11468 17.9324C5.02448 17.8431 4.95287 17.7368 4.904 17.6197C4.85513 17.5026 4.82997 17.3769 4.82998 17.25V15.33C4.84367 15.1964 4.82917 15.0614 4.78741 14.9337C4.74565 14.806 4.67757 14.6886 4.58756 14.5888C4.49755 14.4891 4.38762 14.4094 4.26487 14.3549C4.14213 14.3003 4.0093 14.2721 3.87498 14.2721C3.74066 14.2721 3.60783 14.3003 3.48508 14.3549C3.36234 14.4094 3.25241 14.4891 3.1624 14.5888C3.07239 14.6886 3.00431 14.806 2.96255 14.9337C2.92079 15.0614 2.90629 15.1964 2.91998 15.33V17.25C2.91866 17.6277 2.99193 18.002 3.13557 18.3514C3.27921 18.7007 3.4904 19.0183 3.75704 19.2859C4.02367 19.5534 4.3405 19.7657 4.68936 19.9106C5.03822 20.0554 5.41224 20.13 5.78998 20.13H12.5V20.84C12.5 21.63 12.93 22.34 13.6 22.73ZM14.42 2.16C14.42 2.07 14.46 1.99 14.54 1.95C14.5767 1.92968 14.618 1.91934 14.66 1.92L14.78 1.95L19.72 5.03C20 5.21 20.17 5.52 20.17 5.85V17.15C20.17 17.48 20 17.79 19.72 17.97L14.78 21.05C14.7443 21.0732 14.7026 21.0856 14.66 21.0856C14.6174 21.0856 14.5757 21.0732 14.54 21.05C14.504 21.0304 14.4738 21.0015 14.4527 20.9663C14.4316 20.9312 14.4203 20.891 14.42 20.85V2.14V2.16Z" fill="#B9B9B9"/>
    <path fill-rule="evenodd" clip-rule="evenodd" d="M17.3 13.84C17.82 13.84 18.25 13.41 18.25 12.88V9.99999C18.25 9.74539 18.1488 9.50121 17.9688 9.32117C17.7887 9.14114 17.5446 9.03999 17.29 9.03999C17.0353 9.03999 16.7912 9.14114 16.6111 9.32117C16.4311 9.50121 16.33 9.74539 16.33 9.99999V12.88C16.33 13.41 16.76 13.84 17.29 13.84H17.3Z" fill="#B9B9B9"/>
    <path d="M10.58 12.04L8.5 14.5M1.5 12.04H10.24H1.5ZM10.58 12.04L8.53 9.63L10.58 12.04Z" stroke="#B9B9B9" stroke-width="1.8" stroke-linecap="round" stroke-linejoin="round"/>
  </symbol>
  <symbol id="nav-office" viewBox="0 0 21 25">
    <path d="M10.5 6C9.90756 5.99466 9.32 6.10741 8.77163 6.33167C8.22325 6.55592 7.72505 6.88719 7.30612 7.30612C6.88719 7.72505 6.55592 8.22325 6.33167 8.77163C6.10741 9.32 5.99466 9.90756 6 10.5C6 13.02 7.98 15 10.5 15C13.02 15 15 13.02 15 10.5C15 7.98 13.02 6 10.5 6ZM10.5 13.2C10.1436 13.2068 9.78942 13.1416 9.45877 13.0083C9.12812 12.875 8.82777 12.6764 8.57568 12.4243C8.3236 12.1722 8.12497 11.8719 7.99169 11.5412C7.8584 11.2106 7.79321 10.8564 7.8 10.5C7.8 8.97 8.97 7.8 10.5 7.8C12.03 7.8 13.2 8.97 13.2 10.5C13.2 12.03 12.03 13.2 10.5 13.2Z" fill="currentColor" stroke="currentColor" stroke-width="0.4"/>
    <path d="M10.76 0.999998H10.5C9.25971 0.986797 8.02906 1.2192 6.879 1.6838C5.72893 2.1484 4.68219 2.83602 3.7991 3.70703C2.91601 4.57804 2.21403 5.61521 1.73362 6.75876C1.25322 7.90232 1.00389 9.12964 1 10.37C1 17.27 8.6 22.89 9.9 23.74C9.98 23.83 10.07 23.91 10.15 23.91C10.25 24 10.41 24 10.59 24C10.76 24 10.93 23.91 11.1 23.83C11.36 23.66 20 17.7 20 10.37C20 5.26 15.85 1.17 10.76 0.999998ZM10.5 22.13C8.77 20.85 2.73 15.91 2.73 10.37C2.7377 8.35024 3.53869 6.41437 4.96032 4.97964C6.38195 3.54492 8.3104 2.72621 10.33 2.7H10.5C14.82 2.7 18.27 6.11 18.27 10.37C18.27 15.91 12.31 20.77 10.5 22.13Z" fill="currentColor" stroke="currentColor" stroke-width="0.4"/>
  </symbol>
  <symbol id="nav-status" viewBox="0 0 25 23">
    <path d="M5.5 0.999998C4.90756 0.99466 4.32 1.10741 3.77163 1.33167C3.22325 1.55592 2.72505 1.88719 2.30612 2.30612C1.88719 2.72505 1.55592 3.22325 1.33167 3.77163C1.10741 4.32 0.99466 4.90756 0.999998 5.5C0.999998 8.02 2.98 10 5.5 10C8.02 10 10 8.02 10 5.5C10 2.98 8.02 0.999998 5.5 0.999998ZM5.5 8.2C5.14356 8.20679 4.78942 8.14159 4.45877 8.00831C4.12812 7.87502 3.82777 7.6764 3.57568 7.42431C3.3236 7.17223 3.12497 6.87187 2.99169 6.54122C2.8584 6.21058 2.79321 5.85643 2.8 5.5C2.8 3.97 3.97 2.8 5.5 2.8C7.03 2.8 8.2 3.97 8.2 5.5C8.2 7.03 7.03 8.2 5.5 8.2ZM5.5 13C4.90756 12.9947 4.32 13.1074 3.77163 13.3317C3.22325 13.5559 2.72505 13.8872 2.30612 14.3061C1.88719 14.7251 1.55592 15.2233 1.33167 15.7716C1.10741 16.32 0.99466 16.9076 0.999998 17.5C0.999998 20.02 2.98 22 5.5 22C8.02 22 10 20.02 10 17.5C10 14.98 8.02 13 5.5 13ZM5.5 20.2C5.14356 20.2068 4.78942 20.1416 4.45877 20.0083C4.12812 19.875 3.82777 19.6764 3.57568 19.4243C3.3236 19.1722 3.12497 18.8719 2.99169 18.5412C2.8584 18.2106 2.79321 17.8564 2.8 17.5C2.8 15.97 3.97 14.8 5.5 14.8C7.03 14.8 8.2 15.97 8.2 17.5C8.2 19.03 7.03 20.2 5.5 20.2Z" fill="currentColor" stroke="currentColor" stroke-width="0.4"/>
    <path d="M13.23 19.07H19.45M13.23 4.06999H23.71H13.23ZM13.23 16.07H23.71H13.23ZM13.23 7.06999H19.45H13.23Z" stroke="currentColor" stroke-width="2" stroke-linecap="round" stroke-linejoin="round"/>
  </symbol>
  <symbol id="nav-tour" viewBox="0 0 23 23">
    <path d="M5.39799 6.226C5.25799 5.844 5.16299 5.439 5.18699 5.033C5.20999 4.77 5.30399 4.556 5.49199 4.365L6.07899 3.768C6.33699 3.506 6.66499 3.506 6.89999 3.768C7.06399 3.911 7.20499 4.078 7.36999 4.245L7.83899 4.723C8.09699 4.985 8.09699 5.319 7.83899 5.582C7.65099 5.772 7.46299 5.987 7.25199 6.155C7.20499 6.202 7.20499 6.25 7.22899 6.298C7.36899 6.608 7.53399 6.894 7.74499 7.157C8.16699 7.682 8.63699 8.135 9.19999 8.493C9.31699 8.565 9.45799 8.636 9.57599 8.708C9.64599 8.732 9.69299 8.732 9.73999 8.684L10.327 8.088C10.585 7.825 10.913 7.825 11.148 8.088L12.087 9.042C12.345 9.305 12.345 9.639 12.087 9.902C11.922 10.092 11.711 10.259 11.57 10.45C11.312 10.713 11.03 10.832 10.655 10.808C10.162 10.784 9.69299 10.593 9.24699 10.378C8.23699 9.878 7.39299 9.185 6.66499 8.326C6.12296 7.70559 5.69411 6.99479 5.39799 6.226ZM20.371 6.417H18.893V8.159H20.371C20.771 8.159 21.122 8.493 21.122 8.923V16.44C21.122 16.6401 21.0434 16.8323 20.9031 16.975C20.7628 17.1177 20.5721 17.1996 20.372 17.203H19.15V19.136L17.226 17.18H8.16599C7.96572 17.1766 7.77482 17.0946 7.6345 16.9516C7.49419 16.8087 7.4157 16.6163 7.41599 16.416V15.127H7.13399L5.72699 16.56C5.79699 17.873 6.87699 18.899 8.16699 18.899H16.546L19.316 21.715C19.4025 21.8 19.505 21.867 19.6177 21.9119C19.7303 21.9569 19.8507 21.979 19.972 21.977C20.489 21.977 20.888 21.547 20.888 21.047V18.827C21.4407 18.7026 21.9347 18.3939 22.2887 17.9515C22.6427 17.5092 22.8357 16.9596 22.836 16.393V8.899C22.836 7.539 21.733 6.417 20.371 6.417ZM0.163994 10.999V3.482C0.163994 2.098 1.26699 1 2.60499 1H14.81C16.171 1 17.251 2.122 17.251 3.482V10.999C17.251 12.383 16.148 13.481 14.811 13.481H6.45299L3.68299 16.321C3.51478 16.4884 3.28728 16.5825 3.04999 16.583C2.81311 16.5782 2.58673 16.4843 2.41599 16.32C2.22899 16.153 2.13499 15.89 2.13499 15.628V13.41C1.57771 13.2997 1.07621 12.9988 0.716556 12.5591C0.356906 12.1193 0.161541 11.5681 0.163994 11V10.999ZM1.87799 10.999C1.87799 11.405 2.20599 11.762 2.62799 11.762H3.84999V13.719L5.77399 11.762H14.857C15.0573 11.7589 15.2483 11.6771 15.3888 11.5343C15.5293 11.3916 15.608 11.1993 15.608 10.999V3.482C15.6083 3.2817 15.5298 3.08932 15.3895 2.94638C15.2492 2.80344 15.0583 2.72141 14.858 2.718H2.65099C2.45055 2.72115 2.25939 2.80307 2.11886 2.94603C1.97833 3.089 1.89971 3.28153 1.89999 3.482V10.999H1.87699H1.87799Z" fill="currentColor" stroke="currentColor" stroke-width="0.2"/>
  </symbol>
  <symbol id="percent" viewBox="0 0 14 14">
    <path d="M9.16511 8.343C8.88959 8.35492 8.62931 8.47276 8.43857 8.67193C8.24783 8.8711 8.14136 9.13623 8.14136 9.412C8.14136 9.68778 8.24783 9.9529 8.43857 10.1521C8.62931 10.3512 8.88959 10.4691 9.16511 10.481C9.44062 10.4691 9.7009 10.3512 9.89164 10.1521C10.0824 9.9529 10.1889 9.68778 10.1889 9.412C10.1889 9.13623 10.0824 8.8711 9.89164 8.67193C9.7009 8.47276 9.44062 8.35492 9.16511 8.343Z" fill="white"/>
    <path d="M7.00005 0.00400193C6.07435 -0.00706606 5.15566 0.165702 4.29722 0.512294C3.43878 0.858886 2.65767 1.37241 1.99915 2.0231C1.34063 2.67379 0.81781 3.44871 0.46098 4.30294C0.10415 5.15718 -0.0795898 6.07374 -0.0795898 6.9995C-0.0795898 7.92527 0.10415 8.84183 0.46098 9.69606C0.81781 10.5503 1.34063 11.3252 1.99915 11.9759C2.65767 12.6266 3.43878 13.1401 4.29722 13.4867C5.15566 13.8333 6.07435 14.0061 7.00005 13.995C8.84089 13.973 10.5989 13.2263 11.8928 11.9168C13.1868 10.6072 13.9124 8.84047 13.9124 6.9995C13.9124 5.15854 13.1868 3.39176 11.8928 2.08224C10.5989 0.772725 8.84089 0.0260116 7.00005 0.00400193ZM2.84805 5.037C2.84805 3.921 3.75605 3.013 4.87305 3.013C5.98805 3.013 6.89705 3.921 6.89705 5.037C6.89652 5.57364 6.68311 6.08814 6.30365 6.4676C5.92419 6.84706 5.40969 7.06047 4.87305 7.061C4.33632 7.06047 3.82171 6.84709 3.4421 6.46766C3.06248 6.08823 2.84885 5.57373 2.84805 5.037ZM4.55305 10.349C4.50888 10.3936 4.45632 10.429 4.39839 10.4532C4.34046 10.4773 4.27832 10.4898 4.21555 10.4898C4.15278 10.4898 4.09064 10.4773 4.03271 10.4532C3.97478 10.429 3.92222 10.3936 3.87805 10.349C3.83369 10.3047 3.79851 10.2521 3.7745 10.1942C3.75049 10.1363 3.73813 10.0742 3.73813 10.0115C3.73813 9.94881 3.75049 9.88674 3.7745 9.82882C3.79851 9.77091 3.83369 9.7183 3.87805 9.674L9.34305 4.209C9.38737 4.16462 9.44 4.12939 9.49794 4.10535C9.55587 4.0813 9.61797 4.0689 9.6807 4.06885C9.74342 4.06881 9.80554 4.08111 9.86351 4.10507C9.92148 4.12904 9.97416 4.16418 10.0186 4.2085C10.0629 4.25282 10.0982 4.30545 10.1222 4.36339C10.1463 4.42132 10.1587 4.48342 10.1587 4.54615C10.1587 4.60887 10.1464 4.671 10.1225 4.72896C10.0985 4.78693 10.0634 4.83961 10.0191 4.884L4.55305 10.349ZM9.16505 11.436C8.62842 11.4355 8.11391 11.2221 7.73445 10.8426C7.35499 10.4631 7.14158 9.94864 7.14105 9.412C7.14105 8.296 8.04905 7.388 9.16505 7.388C10.2811 7.388 11.1891 8.296 11.1891 9.412C11.1885 9.94864 10.9751 10.4631 10.5956 10.8426C10.2162 11.2221 9.70169 11.4355 9.16505 11.436Z" fill="white"/>
    <path d="M5.94198 5.037C5.93348 4.75902 5.81707 4.49526 5.61743 4.30163C5.41779 4.108 5.1506 3.99971 4.87248 3.99971C4.59436 3.99971 4.32717 4.108 4.12753 4.30163C3.92789 4.49526 3.81148 4.75902 3.80298 5.037C3.81148 5.31499 3.92789 5.57875 4.12753 5.77238C4.32717 5.96601 4.59436 6.0743 4.87248 6.0743C5.1506 6.0743 5.41779 5.96601 5.61743 5.77238C5.81707 5.57875 5.93348 5.31499 5.94198 5.037Z" fill="white"/>
  </symbol>
  <symbol id="pos" viewBox="0 0 94 94">
    <path d="M92.3125 50.125H78.25V9.5C78.25 7.0136 77.2623 4.62903 75.5041 2.87087C73.746 1.11272 71.3614 0.125 68.875 0.125H36.0625C33.9905 0.125 32.0034 0.9481 30.5382 2.41323C29.0731 3.87836 28.25 5.8655 28.25 7.9375V19.0312C26.4877 19.3961 24.9045 20.3562 23.7664 21.7503C22.6283 23.1445 22.0046 24.8878 22 26.6875V37.625H1.6875C1.2731 37.625 0.875671 37.7896 0.582646 38.0826C0.28962 38.3757 0.125 38.7731 0.125 39.1875V82.9375C0.125 83.3519 0.28962 83.7493 0.582646 84.0424C0.875671 84.3354 1.2731 84.5 1.6875 84.5H22V86.0625C22 88.1345 22.8231 90.1216 24.2882 91.5868C25.7534 93.0519 27.7405 93.875 29.8125 93.875H61.0625C63.1345 93.875 65.1216 93.0519 66.5868 91.5868C68.0519 90.1216 68.875 88.1345 68.875 86.0625V65.75H84.5C86.9864 65.75 89.371 64.7623 91.1291 63.0041C92.8873 61.246 93.875 58.8614 93.875 56.375V51.6875C93.875 51.2731 93.7104 50.8757 93.4174 50.5826C93.1243 50.2896 92.7269 50.125 92.3125 50.125ZM9.5 81.375H3.25V40.75H9.5V81.375ZM15.75 81.375H12.625V40.75H15.75V81.375ZM22 81.375H18.875V40.75H22V81.375ZM31.375 7.9375C31.3787 6.69544 31.8738 5.50531 32.752 4.62704C33.6303 3.74876 34.8204 3.25371 36.0625 3.25H61.8906C60.3483 4.96606 59.4966 7.19273 59.5 9.5V31.375H31.375V7.9375ZM65.75 86.0625C65.7463 87.3046 65.2512 88.4947 64.373 89.373C63.4947 90.2512 62.3046 90.7463 61.0625 90.75H29.8125C28.5704 90.7463 27.3803 90.2512 26.502 89.373C25.6238 88.4947 25.1287 87.3046 25.125 86.0625V26.6875C25.13 25.7209 25.4326 24.7794 25.9918 23.991C26.551 23.2026 27.3395 22.6056 28.25 22.2812V32.9375C28.25 33.3519 28.4146 33.7493 28.7076 34.0424C29.0007 34.3354 29.3981 34.5 29.8125 34.5H61.0625C61.4769 34.5 61.8743 34.3354 62.1674 34.0424C62.4604 33.7493 62.625 33.3519 62.625 32.9375V22.2812C63.5355 22.6056 64.324 23.2026 64.8832 23.991C65.4424 24.7794 65.745 25.7209 65.75 26.6875V86.0625ZM68.875 62.625V26.6875C68.8704 24.8878 68.2467 23.1445 67.1086 21.7503C65.9705 20.3562 64.3873 19.3961 62.625 19.0312V9.5C62.625 7.8424 63.2835 6.25268 64.4556 5.08058C65.6277 3.90848 67.2174 3.25 68.875 3.25C70.5326 3.25 72.1223 3.90848 73.2944 5.08058C74.4665 6.25268 75.125 7.8424 75.125 9.5V56.375C75.1271 58.6841 75.9843 60.9106 77.5312 62.625H68.875ZM90.75 56.375C90.75 58.0326 90.0915 59.6223 88.9194 60.7944C87.7473 61.9665 86.1576 62.625 84.5 62.625C82.8424 62.625 81.2527 61.9665 80.0806 60.7944C78.9085 59.6223 78.25 58.0326 78.25 56.375V53.25H90.75V56.375Z" fill="#ABDCF0"/>
    <path d="M36.0625 53.25H29.8125C29.3981 53.25 29.0007 53.4146 28.7076 53.7076C28.4146 54.0007 28.25 54.3981 28.25 54.8125V61.0625C28.25 61.4769 28.4146 61.8743 28.7076 62.1674C29.0007 62.4604 29.3981 62.625 29.8125 62.625H36.0625C36.4769 62.625 36.8743 62.4604 37.1674 62.1674C37.4604 61.8743 37.625 61.4769 37.625 61.0625V54.8125C37.625 54.3981 37.4604 54.0007 37.1674 53.7076C36.8743 53.4146 36.4769 53.25 36.0625 53.25ZM34.5 59.5H31.375V56.375H34.5V59.5Z" fill="#ABDCF0"/>
    <path d="M48.5625 53.25H42.3125C41.8981 53.25 41.5007 53.4146 41.2076 53.7076C40.9146 54.0007 40.75 54.3981 40.75 54.8125V61.0625C40.75 61.4769 40.9146 61.8743 41.2076 62.1674C41.5007 62.4604 41.8981 62.625 42.3125 62.625H48.5625C48.9769 62.625 49.3743 62.4604 49.6674 62.1674C49.9604 61.8743 50.125 61.4769 50.125 61.0625V54.8125C50.125 54.3981 49.9604 54.0007 49.6674 53.7076C49.3743 53.4146 48.9769 53.25 48.5625 53.25ZM47 59.5H43.875V56.375H47V59.5Z" fill="#ABDCF0"/>
    <path d="M61.0625 53.25H54.8125C54.3981 53.25 54.0007 53.4146 53.7076 53.7076C53.4146 54.0007 53.25 54.3981 53.25 54.8125V61.0625C53.25 61.4769 53.4146 61.8743 53.7076 62.1674C54.0007 62.4604 54.3981 62.625 54.8125 62.625H61.0625C61.4769 62.625 61.8743 62.4604 62.1674 62.1674C62.4604 61.8743 62.625 61.4769 62.625 61.0625V54.8125C62.625 54.3981 62.4604 54.0007 62.1674 53.7076C61.8743 53.4146 61.4769 53.25 61.0625 53.25ZM59.5 59.5H56.375V56.375H59.5V59.5Z" fill="#ABDCF0"/>
    <path d="M36.0625 65.75H29.8125C29.3981 65.75 29.0007 65.9146 28.7076 66.2076C28.4146 66.5007 28.25 66.8981 28.25 67.3125V73.5625C28.25 73.9769 28.4146 74.3743 28.7076 74.6674C29.0007 74.9604 29.3981 75.125 29.8125 75.125H36.0625C36.4769 75.125 36.8743 74.9604 37.1674 74.6674C37.4604 74.3743 37.625 73.9769 37.625 73.5625V67.3125C37.625 66.8981 37.4604 66.5007 37.1674 66.2076C36.8743 65.9146 36.4769 65.75 36.0625 65.75ZM34.5 72H31.375V68.875H34.5V72Z" fill="#ABDCF0"/>
    <path d="M48.5625 65.75H42.3125C41.8981 65.75 41.5007 65.9146 41.2076 66.2076C40.9146 66.5007 40.75 66.8981 40.75 67.3125V73.5625C40.75 73.9769 40.9146 74.3743 41.2076 74.6674C41.5007 74.9604 41.8981 75.125 42.3125 75.125H48.5625C48.9769 75.125 49.3743 74.9604 49.6674 74.6674C49.9604 74.3743 50.125 73.9769 50.125 73.5625V67.3125C50.125 66.8981 49.9604 66.5007 49.6674 66.2076C49.3743 65.9146 48.9769 65.75 48.5625 65.75ZM47 72H43.875V68.875H47V72Z" fill="#ABDCF0"/>
    <path d="M61.0625 65.75H54.8125C54.3981 65.75 54.0007 65.9146 53.7076 66.2076C53.4146 66.5007 53.25 66.8981 53.25 67.3125V73.5625C53.25 73.9769 53.4146 74.3743 53.7076 74.6674C54.0007 74.9604 54.3981 75.125 54.8125 75.125H61.0625C61.4769 75.125 61.8743 74.9604 62.1674 74.6674C62.4604 74.3743 62.625 73.9769 62.625 73.5625V67.3125C62.625 66.8981 62.4604 66.5007 62.1674 66.2076C61.8743 65.9146 61.4769 65.75 61.0625 65.75ZM59.5 72H56.375V68.875H59.5V72Z" fill="#ABDCF0"/>
    <path d="M36.0625 78.25H29.8125C29.3981 78.25 29.0007 78.4146 28.7076 78.7076C28.4146 79.0007 28.25 79.3981 28.25 79.8125V86.0625C28.25 86.4769 28.4146 86.8743 28.7076 87.1674C29.0007 87.4604 29.3981 87.625 29.8125 87.625H36.0625C36.4769 87.625 36.8743 87.4604 37.1674 87.1674C37.4604 86.8743 37.625 86.4769 37.625 86.0625V79.8125C37.625 79.3981 37.4604 79.0007 37.1674 78.7076C36.8743 78.4146 36.4769 78.25 36.0625 78.25ZM34.5 84.5H31.375V81.375H34.5V84.5Z" fill="#ABDCF0"/>
    <path d="M48.5625 78.25H42.3125C41.8981 78.25 41.5007 78.4146 41.2076 78.7076C40.9146 79.0007 40.75 79.3981 40.75 79.8125V86.0625C40.75 86.4769 40.9146 86.8743 41.2076 87.1674C41.5007 87.4604 41.8981 87.625 42.3125 87.625H48.5625C48.9769 87.625 49.3743 87.4604 49.6674 87.1674C49.9604 86.8743 50.125 86.4769 50.125 86.0625V79.8125C50.125 79.3981 49.9604 79.0007 49.6674 78.7076C49.3743 78.4146 48.9769 78.25 48.5625 78.25ZM47 84.5H43.875V81.375H47V84.5Z" fill="#ABDCF0"/>
    <path d="M61.0625 78.25H54.8125C54.3981 78.25 54.0007 78.4146 53.7076 78.7076C53.4146 79.0007 53.25 79.3981 53.25 79.8125V86.0625C53.25 86.4769 53.4146 86.8743 53.7076 87.1674C54.0007 87.4604 54.3981 87.625 54.8125 87.625H61.0625C61.4769 87.625 61.8743 87.4604 62.1674 87.1674C62.4604 86.8743 62.625 86.4769 62.625 86.0625V79.8125C62.625 79.3981 62.4604 79.0007 62.1674 78.7076C61.8743 78.4146 61.4769 78.25 61.0625 78.25ZM59.5 84.5H56.375V81.375H59.5V84.5Z" fill="#ABDCF0"/>
    <path d="M61.0625 40.75H29.8125C29.3981 40.75 29.0007 40.9146 28.7076 41.2076C28.4146 41.5007 28.25 41.8981 28.25 42.3125V48.5625C28.25 48.9769 28.4146 49.3743 28.7076 49.6674C29.0007 49.9604 29.3981 50.125 29.8125 50.125H61.0625C61.4769 50.125 61.8743 49.9604 62.1674 49.6674C62.4604 49.3743 62.625 48.9769 62.625 48.5625V42.3125C62.625 41.8981 62.4604 41.5007 62.1674 41.2076C61.8743 40.9146 61.4769 40.75 61.0625 40.75ZM59.5 47H31.375V43.875H59.5V47Z" fill="#ABDCF0"/>
    <path d="M50.125 20.4375C50.12 21.4041 49.8174 22.3456 49.2582 23.134C48.699 23.9224 47.9105 24.5194 47 24.8438V26.6875H43.875V24.8438C42.9645 24.5194 42.176 23.9224 41.6168 23.134C41.0576 22.3456 40.755 21.4041 40.75 20.4375H43.875C43.875 20.7465 43.9666 21.0486 44.1383 21.3056C44.31 21.5625 44.554 21.7628 44.8396 21.8811C45.1251 21.9993 45.4392 22.0303 45.7423 21.97C46.0454 21.9097 46.3238 21.7609 46.5424 21.5424C46.7609 21.3238 46.9097 21.0454 46.97 20.7423C47.0303 20.4392 46.9993 20.1251 46.8811 19.8396C46.7628 19.554 46.5625 19.31 46.3056 19.1383C46.0486 18.9666 45.7465 18.875 45.4375 18.875C44.3382 18.8665 43.2769 18.4719 42.4391 17.7601C41.6012 17.0484 41.0402 16.0649 40.8541 14.9814C40.6679 13.898 40.8685 12.7836 41.4207 11.833C41.9729 10.8825 42.8416 10.1562 43.875 9.78125V7.9375H47V9.78125C47.9105 10.1056 48.699 10.7026 49.2582 11.491C49.8174 12.2794 50.12 13.2209 50.125 14.1875H47C47 13.8785 46.9084 13.5764 46.7367 13.3194C46.565 13.0625 46.321 12.8622 46.0354 12.7439C45.7499 12.6257 45.4358 12.5947 45.1327 12.655C44.8296 12.7153 44.5512 12.8641 44.3326 13.0826C44.1141 13.3012 43.9653 13.5796 43.905 13.8827C43.8447 14.1858 43.8757 14.4999 43.9939 14.7854C44.1122 15.071 44.3125 15.315 44.5694 15.4867C44.8264 15.6584 45.1285 15.75 45.4375 15.75C46.6796 15.7537 47.8697 16.2488 48.748 17.127C49.6262 18.0053 50.1213 19.1954 50.125 20.4375Z" fill="#ABDCF0"/>
  </symbol>
  <symbol id="questions" viewBox="0 0 105 105">
    <path d="M44.9794 8.59652C44.9794 10.1979 43.6816 11.4965 42.0802 11.4965C40.4789 11.4965 39.1803 10.1979 39.1803 8.59652C39.1803 6.99515 40.4789 5.69739 42.0802 5.69739C43.6816 5.69739 44.9794 6.99515 44.9794 8.59652Z" fill="#ABDCF0"/>
    <path d="M71.9024 14.2922H51.5035V9.21812C51.5035 4.02226 47.2761 -0.205078 42.0803 -0.205078C36.8844 -0.205078 32.6571 4.02226 32.6571 9.21812V14.2922H12.2573C9.11708 14.2922 6.56241 16.8469 6.56241 19.9871V99.0994C6.56241 102.24 9.11708 104.795 12.2573 104.795H71.9024C75.0426 104.795 77.5981 102.24 77.5981 99.0994V67.5173C77.5981 66.6593 76.9028 65.964 76.0448 65.964C75.1868 65.964 74.4915 66.6593 74.4915 67.5173V99.1002C74.4915 100.528 73.3299 101.689 71.9024 101.689H12.2573C10.8298 101.689 9.66903 100.527 9.66903 99.1002V19.9871C9.66903 18.5596 10.8298 17.3988 12.2573 17.3988H71.9024C73.3299 17.3988 74.4915 18.5604 74.4915 19.9871V60.2947C74.4915 61.1519 75.1868 61.8472 76.0448 61.8472C76.9028 61.8472 77.5981 61.1519 77.5981 60.2947V19.9871C77.5981 16.8469 75.0426 14.2922 71.9024 14.2922ZM35.7637 9.21812C35.7637 5.73499 38.5971 2.90154 42.0803 2.90154C45.5634 2.90154 48.3968 5.73499 48.3968 9.21812V14.2922H35.7637V9.21812Z" fill="#ABDCF0"/>
    <path d="M56.1634 29.6178H27.9971C27.1392 29.6178 26.4438 30.3131 26.4438 31.1703C26.4438 32.0283 27.1392 32.7236 27.9971 32.7236H56.1626C57.0205 32.7236 57.7159 32.0283 57.7159 31.1703C57.7159 30.3131 57.0205 29.6178 56.1634 29.6178Z" fill="#ABDCF0"/>
    <path d="M14.7423 47.3507C13.8852 47.3507 13.1898 48.046 13.1898 48.904V96.6144C13.1898 97.4723 13.8852 98.1677 14.7423 98.1677H69.4174C70.2753 98.1677 70.9707 97.4723 70.9707 96.6144V22.4721C70.9707 21.6149 70.2753 20.9196 69.4174 20.9196H14.7423C13.8852 20.9196 13.1898 21.6149 13.1898 22.4721V41.6485C13.1898 42.5065 13.8852 43.2018 14.7423 43.2018C15.6003 43.2018 16.2956 42.5065 16.2956 41.6485V24.0254H67.8641V95.0611H16.2956V48.904C16.2956 48.046 15.6003 47.3507 14.7423 47.3507Z" fill="#ABDCF0"/>
    <path d="M20.8522 41.9401V50.2242C20.8522 51.0822 21.5475 51.7775 22.4055 51.7775H30.8962C31.7542 51.7775 32.4495 51.0822 32.4495 50.2242V41.9401C32.4495 41.0822 31.7542 40.3868 30.8962 40.3868H22.4055C21.5475 40.3868 20.8522 41.0822 20.8522 41.9401ZM23.9588 43.4935H29.3429V48.6709H23.9588V43.4935Z" fill="#ABDCF0"/>
    <path d="M61.7549 40.5935H36.4886C35.6307 40.5935 34.9353 41.2897 34.9353 42.1468C34.9353 43.0048 35.6307 43.7001 36.4886 43.7001H61.7549C62.6121 43.7001 63.3083 43.0048 63.3083 42.1468C63.3083 41.2889 62.6121 40.5935 61.7549 40.5935Z" fill="#ABDCF0"/>
    <path d="M36.4886 51.7775H51.3993C52.2573 51.7775 52.9526 51.0822 52.9526 50.2242C52.9526 49.3662 52.2573 48.6709 51.3993 48.6709H36.4886C35.6307 48.6709 34.9353 49.3662 34.9353 50.2242C34.9353 51.0822 35.6307 51.7775 36.4886 51.7775Z" fill="#ABDCF0"/>
    <path d="M20.8522 68.6555C20.8522 69.5135 21.5475 70.2089 22.4055 70.2089H30.8962C31.7542 70.2089 32.4495 69.5135 32.4495 68.6555V60.3723C32.4495 59.5143 31.7542 58.819 30.8962 58.819H22.4055C21.5475 58.819 20.8522 59.5143 20.8522 60.3723V68.6555ZM23.9588 61.9256H29.3429V67.103H23.9588V61.9256Z" fill="#ABDCF0"/>
    <path d="M61.7549 59.0258H36.4886C35.6307 59.0258 34.9353 59.7211 34.9353 60.5791C34.9353 61.437 35.6307 62.1324 36.4886 62.1324H61.7549C62.6121 62.1324 63.3083 61.437 63.3083 60.5791C63.3083 59.7211 62.6121 59.0258 61.7549 59.0258Z" fill="#ABDCF0"/>
    <path d="M36.4886 70.2089H51.3993C52.2573 70.2089 52.9526 69.5136 52.9526 68.6556C52.9526 67.7984 52.2573 67.1023 51.3993 67.1023H36.4886C35.6307 67.1023 34.9353 67.7984 34.9353 68.6556C34.9353 69.5144 35.6307 70.2089 36.4886 70.2089Z" fill="#ABDCF0"/>
    <path d="M20.8522 87.0879C20.8522 87.9458 21.5475 88.6412 22.4055 88.6412H30.8962C31.7542 88.6412 32.4495 87.9458 32.4495 87.0879V78.8038C32.4495 77.9458 31.7542 77.2505 30.8962 77.2505H22.4055C21.5475 77.2505 20.8522 77.9458 20.8522 78.8038V87.0879ZM23.9588 80.3571H29.3429V85.5345H23.9588V80.3571Z" fill="#ABDCF0"/>
    <path d="M63.3083 79.0113C63.3083 78.1533 62.6121 77.458 61.7549 77.458H36.4886C35.6307 77.458 34.9353 78.1533 34.9353 79.0113C34.9353 79.8685 35.6307 80.5646 36.4886 80.5646H61.7549C62.6121 80.5646 63.3083 79.8693 63.3083 79.0113Z" fill="#ABDCF0"/>
    <path d="M36.4886 85.5344C35.6307 85.5344 34.9353 86.2298 34.9353 87.0877C34.9353 87.9457 35.6307 88.6411 36.4886 88.6411H51.3993C52.2573 88.6411 52.9526 87.9457 52.9526 87.0877C52.9526 86.2298 52.2573 85.5344 51.3993 85.5344H36.4886Z" fill="#ABDCF0"/>
    <path d="M94.0621 14.2922H87.8496C85.2797 14.2922 83.1897 16.3823 83.1897 18.9514V88.1237C83.1897 88.4794 83.3123 88.8255 83.5366 89.1018L89.749 96.7642C90.0446 97.1279 90.4876 97.3394 90.9554 97.3394C91.4241 97.3394 91.8671 97.1279 92.1627 96.7642L98.3751 89.1018C98.6002 88.8255 98.722 88.4794 98.722 88.1237V42.6644C98.722 41.8072 98.0266 41.1119 97.1687 41.1119C96.3107 41.1119 95.6154 41.8072 95.6154 42.6644V87.5725L90.9554 93.3204L86.2963 87.5725V29.2029H89.4029V88.1237C89.4029 88.9817 90.0983 89.677 90.9554 89.677C91.8134 89.677 92.5087 88.9817 92.5087 88.1237V29.2029H95.6154V35.4337C95.6154 36.2917 96.3107 36.9871 97.1687 36.9871C98.0266 36.9871 98.722 36.2917 98.722 35.4337V18.9514C98.722 16.3823 96.6319 14.2922 94.0621 14.2922ZM86.2963 26.0971V18.9514C86.2963 18.095 86.9933 17.3989 87.8496 17.3989H94.0629C94.9192 17.3989 95.6162 18.095 95.6162 18.9514V26.0971H86.2963Z" fill="#ABDCF0"/>
  </symbol>
  <symbol id="fb"  viewBox="0 0 408.788 408.788">
    <path fill="currentColor" d="M353.701,0H55.087C24.665,0,0.002,24.662,0.002,55.085v298.616c0,30.423,24.662,55.085,55.085,55.085
      h147.275l0.251-146.078h-37.951c-4.932,0-8.935-3.988-8.954-8.92l-0.182-47.087c-0.019-4.959,3.996-8.989,8.955-8.989h37.882
      v-45.498c0-52.8,32.247-81.55,79.348-81.55h38.65c4.945,0,8.955,4.009,8.955,8.955v39.704c0,4.944-4.007,8.952-8.95,8.955
      l-23.719,0.011c-25.615,0-30.575,12.172-30.575,30.035v39.389h56.285c5.363,0,9.524,4.683,8.892,10.009l-5.581,47.087
      c-0.534,4.506-4.355,7.901-8.892,7.901h-50.453l-0.251,146.078h87.631c30.422,0,55.084-24.662,55.084-55.084V55.085
      C408.786,24.662,384.124,0,353.701,0z"/>
  </symbol>
  <symbol id="telegram" viewBox="0 0 24 24">
    <path fill="currentColor" d="M19,24l-14,0c-2.761,0 -5,-2.239 -5,-5l0,-14c0,-2.761 2.239,-5 5,-5l14,0c2.762,0 5,2.239 5,5l0,14c0,2.761 -2.238,5 -5,5Zm-2.744,-5.148c0.215,0.153 0.491,0.191 0.738,0.097c0.246,-0.093 0.428,-0.304 0.483,-0.56c0.579,-2.722 1.985,-9.614 2.512,-12.09c0.039,-0.187 -0.027,-0.381 -0.173,-0.506c-0.147,-0.124 -0.351,-0.16 -0.532,-0.093c-2.795,1.034 -11.404,4.264 -14.923,5.567c-0.223,0.082 -0.368,0.297 -0.361,0.533c0.008,0.235 0.167,0.44 0.395,0.509c1.578,0.471 3.65,1.128 3.65,1.128c0,0 0.967,2.924 1.472,4.41c0.063,0.187 0.21,0.334 0.402,0.384c0.193,0.05 0.397,-0.002 0.541,-0.138c0.811,-0.765 2.064,-1.948 2.064,-1.948c0,0 2.381,1.746 3.732,2.707Zm-7.34,-5.784l1.119,3.692l0.249,-2.338c0,0 4.324,-3.9 6.79,-6.124c0.072,-0.065 0.082,-0.174 0.022,-0.251c-0.06,-0.077 -0.169,-0.095 -0.251,-0.043c-2.857,1.825 -7.929,5.064 -7.929,5.064Z"/>
  </symbol>
  <symbol id="inst" viewBox="0 0 512 512">
    <path fill="currentColor" d="m376 91h-240c-24.8125 0-45 20.1875-45 45v240c0 24.8125 20.1875 45 45 45h240c24.8125 0 45-20.1875 45-45v-240c0-24.8125-20.1875-45-45-45zm-120 270c-57.890625 0-105-47.109375-105-105s47.109375-105 105-105 105 47.109375 105 105-47.109375 105-105 105zm105-180c-16.539062 0-30-13.460938-30-30s13.460938-30 30-30 30 13.460938 30 30-13.460938 30-30 30zm0 0"/><path d="m256 181c-41.351562 0-75 33.648438-75 75s33.648438 75 75 75 75-33.648438 75-75-33.648438-75-75-75zm0 0"/><path d="m436 0h-360c-41.351562 0-76 34.648438-76 76v360c0 41.351562 34.648438 76 76 76h360c41.351562 0 76-34.648438 76-76v-360c0-41.351562-34.648438-76-76-76zm15 376c0 41.351562-33.648438 75-75 75h-240c-41.351562 0-75-33.648438-75-75v-240c0-41.351562 33.648438-75 75-75h240c41.351562 0 75 33.648438 75 75zm0 0"/>
  </symbol>
  <symbol id="yt" viewBox="-21 -117 682.66672 682">
    <path fill="currentColor" d="m626.8125 64.035156c-7.375-27.417968-28.992188-49.03125-56.40625-56.414062-50.082031-13.703125-250.414062-13.703125-250.414062-13.703125s-200.324219 0-250.40625 13.183593c-26.886719 7.375-49.03125 29.519532-56.40625 56.933594-13.179688 50.078125-13.179688 153.933594-13.179688 153.933594s0 104.378906 13.179688 153.933594c7.382812 27.414062 28.992187 49.027344 56.410156 56.410156 50.605468 13.707031 250.410156 13.707031 250.410156 13.707031s200.324219 0 250.40625-13.183593c27.417969-7.378907 49.03125-28.992188 56.414062-56.40625 13.175782-50.082032 13.175782-153.933594 13.175782-153.933594s.527344-104.382813-13.183594-154.460938zm-370.601562 249.878906v-191.890624l166.585937 95.945312zm0 0"/>
  </symbol>
  <symbol id="burger" viewBox="0 0 18 15">
    <rect width="18" height="3" rx="1" fill="#092A5E"/>
    <rect y="6" width="18" height="3" rx="1" fill="#092A5E"/>
    <rect y="12" width="18" height="3" rx="1" fill="#092A5E"/>
  </symbol>
</svg>
